HIERARCHY
ROOT hip
{
  OFFSET 0 0 0
  CHANNELS 6 Xposition Yposition Zposition Zrotation Yrotation Xrotation
  JOINT abdomen
  {
    OFFSET 0 20.6881 -0.73152
    CHANNELS 3 Zrotation Xrotation Yrotation
    JOINT chest
    {
      OFFSET 0 11.7043 -0.48768
      CHANNELS 3 Zrotation Xrotation Yrotation
      JOINT neck
      {
        OFFSET 0 22.1894 -2.19456
        CHANNELS 3 Zrotation Xrotation Yrotation
        JOINT head
        {
          OFFSET -0.24384 7.07133 1.2192
          CHANNELS 3 Zrotation Xrotation Yrotation
          JOINT leftEye
          {
            OFFSET 4.14528 8.04674 8.04672
            CHANNELS 3 Zrotation Xrotation Yrotation
            End Site
            {
              OFFSET 1 0 0
            }
          }
          JOINT rightEye
          {
            OFFSET -3.6576 8.04674 8.04672
            CHANNELS 3 Zrotation Xrotation Yrotation
            End Site
            {
              OFFSET 1 0 0
            }
          }
        }
      }
      JOINT rCollar
      {
        OFFSET -2.68224 19.2634 -4.8768
        CHANNELS 3 Zrotation Xrotation Yrotation
        JOINT rShldr
        {
          OFFSET -8.77824 -1.95073 1.46304
          CHANNELS 3 Zrotation Xrotation Yrotation
          JOINT rForeArm
          {
            OFFSET -28.1742 -1.7115 0.48768
            CHANNELS 3 Zrotation Xrotation Yrotation
            JOINT rHand
            {
              OFFSET -22.5879 0.773209 7.07136
              CHANNELS 3 Zrotation Xrotation Yrotation
              JOINT rThumb1
              {
                OFFSET -1.2192 -0.487915 3.41376
                CHANNELS 3 Zrotation Xrotation Yrotation
                JOINT rThumb2
                {
                  OFFSET -3.37035 -0.52449 3.41376
                  CHANNELS 3 Zrotation Xrotation Yrotation
                  End Site
                  {
                    OFFSET -1.78271 -1.18214 1.43049
                  }
                }
              }
              JOINT rIndex1
              {
                OFFSET -7.75947 0.938293 5.60832
                CHANNELS 3 Zrotation Xrotation Yrotation
                JOINT rIndex2
                {
                  OFFSET -2.54057 -0.884171 1.56538
                  CHANNELS 3 Zrotation Xrotation Yrotation
                  End Site
                  {
                    OFFSET -1.62519 -0.234802 1.16502
                  }
                }
              }
              JOINT rMid1
              {
                OFFSET -8.24714 1.18213 3.41376
                CHANNELS 3 Zrotation Xrotation Yrotation
                JOINT rMid2
                {
                  OFFSET -3.10165 -0.590103 1.0647
                  CHANNELS 3 Zrotation Xrotation Yrotation
                  End Site
                  {
                    OFFSET -2.48547 -0.328903 0.83742
                  }
                }
              }
              JOINT rRing1
              {
                OFFSET -8.82822 0.546677 1.51678
                CHANNELS 3 Zrotation Xrotation Yrotation
                JOINT rRing2
                {
                  OFFSET -2.60934 -0.819778 -0.0198488
                  CHANNELS 3 Zrotation Xrotation Yrotation
                  End Site
                  {
                    OFFSET -2.33842 -0.294052 0.168128
                  }
                }
              }
              JOINT rPinky1
              {
                OFFSET -8.27202 -0.0477905 -0.4584
                CHANNELS 3 Zrotation Xrotation Yrotation
                JOINT rPinky2
                {
                  OFFSET -1.82734 -0.647385 -0.700984
                  CHANNELS 3 Zrotation Xrotation Yrotation
                  End Site
                  {
                    OFFSET -1.69225 -0.51767 -0.607171
                  }
                }
              }
            }
          }
        }
      }
      JOINT lCollar
      {
        OFFSET 2.68224 19.2634 -4.8768
        CHANNELS 3 Zrotation Xrotation Yrotation
        JOINT lShldr
        {
          OFFSET 8.77824 -1.95073 1.46304
          CHANNELS 3 Zrotation Xrotation Yrotation
          JOINT lForeArm
          {
            OFFSET 28.1742 -1.7115 0.48768
            CHANNELS 3 Zrotation Xrotation Yrotation
            JOINT lHand
            {
              OFFSET 22.5879 0.773209 7.07136
              CHANNELS 3 Zrotation Xrotation Yrotation
              JOINT lThumb1
              {
                OFFSET 1.2192 -0.487915 3.41376
                CHANNELS 3 Zrotation Xrotation Yrotation
                JOINT lThumb2
                {
                  OFFSET 3.37035 -0.52449 3.41376
                  CHANNELS 3 Zrotation Xrotation Yrotation
                  End Site
                  {
                    OFFSET 1.78271 -1.18214 1.43049
                  }
                }
              }
              JOINT lIndex1
              {
                OFFSET 7.75947 0.938293 5.60832
                CHANNELS 3 Zrotation Xrotation Yrotation
                JOINT lIndex2
                {
                  OFFSET 2.54057 -0.884171 1.56538
                  CHANNELS 3 Zrotation Xrotation Yrotation
                  End Site
                  {
                    OFFSET 1.62519 -0.234802 1.16502
                  }
                }
              }
              JOINT lMid1
              {
                OFFSET 8.24714 1.18213 3.41376
                CHANNELS 3 Zrotation Xrotation Yrotation
                JOINT lMid2
                {
                  OFFSET 3.10165 -0.590103 1.0647
                  CHANNELS 3 Zrotation Xrotation Yrotation
                  End Site
                  {
                    OFFSET 2.48547 -0.328903 0.83742
                  }
                }
              }
              JOINT lRing1
              {
                OFFSET 8.82822 0.546677 1.51678
                CHANNELS 3 Zrotation Xrotation Yrotation
                JOINT lRing2
                {
                  OFFSET 2.60934 -0.819778 -0.0198488
                  CHANNELS 3 Zrotation Xrotation Yrotation
                  End Site
                  {
                    OFFSET 2.33842 -0.294052 0.168128
                  }
                }
              }
              JOINT lPinky1
              {
                OFFSET 8.27202 -0.0477905 -0.4584
                CHANNELS 3 Zrotation Xrotation Yrotation
                JOINT lPinky2
                {
                  OFFSET 1.82734 -0.647385 -0.700984
                  CHANNELS 3 Zrotation Xrotation Yrotation
                  End Site
                  {
                    OFFSET 1.69225 -0.51767 -0.607171
                  }
                }
              }
            }
          }
        }
      }
    }
  }
  JOINT rButtock
  {
    OFFSET -8.77824 4.35084 1.2192
    CHANNELS 3 Zrotation Xrotation Yrotation
    JOINT rThigh
    {
      OFFSET 0 -1.70687 -2.19456
      CHANNELS 3 Zrotation Xrotation Yrotation
      JOINT rShin
      {
        OFFSET 0 -36.8199 0.73152
        CHANNELS 3 Zrotation Xrotation Yrotation
        JOINT rFoot
        {
          OFFSET 0.73152 -45.1104 -5.12064
          CHANNELS 3 Zrotation Xrotation Yrotation
          End Site
          {
            OFFSET -1.1221 -3.69964 12.103
          }
        }
      }
    }
  }
  JOINT lButtock
  {
    OFFSET 8.77824 4.35084 1.2192
    CHANNELS 3 Zrotation Xrotation Yrotation
    JOINT lThigh
    {
      OFFSET 0 -1.70687 -2.19456
      CHANNELS 3 Zrotation Xrotation Yrotation
      JOINT lShin
      {
        OFFSET 0 -36.8199 0.73152
        CHANNELS 3 Zrotation Xrotation Yrotation
        JOINT lFoot
        {
          OFFSET -0.73152 -45.1104 -5.12064
          CHANNELS 3 Zrotation Xrotation Yrotation
          End Site
          {
            OFFSET 1.1221 -3.69964 12.103
          }
        }
      }
    }
  }
}
MOTION
Frames:	5
Frame Time:	0.03333
0.0 0.0 0.0 0.0 0.0 0.0 0.0 0.0 0.0 0.0 0.0 0.0 0.0 0.0 0.0 0.0 0.0 0.0 0.0 0.0 0.0 0.0 0.0 0.0 0.0 0.0 0.0 0.0 0.0 0.0 0.0 0.0 0.0 0.0 0.0 0.0 0.0 0.0 0.0 0.0 0.0 0.0 0.0 0.0 0.0 0.0 0.0 0.0 0.0 0.0 0.0 0.0 0.0 0.0 0.0 0.0 0.0 0.0 0.0 0.0 0.0 0.0 0.0 0.0 0.0 0.0 0.0 0.0 0.0 0.0 0.0 0.0 0.0 0.0 0.0 0.0 0.0 0.0 0.0 0.0 0.0 0.0 0.0 0.0 0.0 0.0 0.0 0.0 0.0 0.0 0.0 0.0 0.0 0.0 0.0 0.0 0.0 0.0 0.0 0.0 0.0 0.0 0.0 0.0 0.0 0.0 0.0 0.0 0.0 0.0 0.0 0.0 0.0 0.0 0.0 0.0 0.0 0.0 0.0 0.0 0.0 0.0 0.0 0.0 0.0 0.0 0.0 0.0 0.0 0.0 0.0 0.0
1.3514 66.709 2.5454 14.305013 -36.721556 -10.035506 -5.472685 28.794681 -113.415305 10.653642 -3.994213 129.278561 9.219672 29.466963 130.91772 -30.410334 34.374034 -85.579834 -0.004681 -0.0 0.001363 -0.004681 -0.0 0.001363 -33.845195 -85.66525 -55.262514 52.04448 39.966066 -44.67394 47.58048 71.834658 64.612874 -16.998159 51.421872 6.833624 -85.442486 38.648093 47.680437 -21.825821 -7.313085 33.162646 5.92273 -10.174228 -2.968418 -151.072135 -0.279492 109.555788 6.533382 -20.41487 -2.718386 -154.145321 20.060309 138.705829 -145.118554 0.267399 -179.213182 -154.423321 71.870748 169.601967 26.973443 80.122804 10.136332 14.379231 41.89155 7.266982 -0.163143 -0.990071 0.218283 110.309959 -11.866659 -177.787359 142.440413 41.514781 92.96973 1.553169 -39.591007 6.239876 174.391243 -12.052334 -89.860062 122.219183 14.726937 -58.254587 117.899609 27.948879 -99.678152 -94.644301 -68.352887 -45.636628 89.835532 60.701753 -81.262618 163.079295 -4.780684 -143.155992 0.015736 -1.323255 0.415182 -9.342091 12.723121 -1.66049 -6.229451 18.789168 -5.575111 -1.160784 -2.598317 0.87283 -0.0 -0.000481 -0.000508 -35.28151 -34.127226 -22.270864 21.278195 83.621489 -136.062032 101.534736 72.296458 5.559756 0.001829 -0.000481 0.000914 61.783964 -56.905291 -26.23519 -77.380291 24.505752 142.049141 -17.252253 49.938103 -42.283957
2.2865 65.5454 4.3468 13.002167 -39.300845 -8.761891 -5.646427 26.956618 -93.165415 9.021095 -7.709043 110.025155 10.517976 23.678946 94.885846 -35.989237 12.603819 -53.510531 -0.003011 0.0 -0.001184 -0.003011 0.0 -0.001184 -82.877312 68.299954 86.00067 -132.402378 23.983551 112.935592 -5.971002 -14.451853 -141.823249 156.591746 -40.131053 137.194701 -171.636746 -9.319213 89.950015 5.857285 -57.176613 10.864046 -166.786795 -43.920869 122.069312 1.299864 22.610966 -3.840745 -161.153533 -8.160336 143.466265 -153.959578 19.919666 138.340488 0.004412 1.771269 0.557257 -156.257739 -13.739307 173.484278 4.052682 11.638587 3.677043 -147.555754 11.642427 -143.663446 -3.446738 -62.740794 13.274794 170.41746 31.727461 134.820678 50.620262 72.199002 91.651388 172.497196 -7.371847 -143.680888 103.199279 36.332088 -60.11213 2.98243 -20.42375 -26.502287 148.886806 -12.608884 -120.246279 56.610198 56.662391 -40.60734 -89.034533 -81.39422 -59.759519 156.107189 15.584026 -139.697393 145.123089 1.12158 179.480656 145.850165 -49.24744 168.098084 14.102083 -26.511727 13.431283 3.954496 -16.348478 6.270025 0.000293 9e-06 -0.000377 -36.425725 -37.176663 -117.610567 -78.767437 7.588957 142.780128 -133.518425 52.85055 40.639251 0.000293 9e-06 -0.000377 45.861057 -50.875671 97.207219 70.382754 11.2331 -5.067644 4.265856 55.403695 -71.068754
3.5302 64.17960000000001 6.1683 11.816622 -41.488112 -7.793556 -7.479621 22.500344 -161.064234 8.07491 3.977737 178.414121 -9.674584 19.667624 -48.849201 30.973895 -11.401119 92.11285 -0.000308 -0.0 0.002202 -0.000662 -0.0 0.000616 -6.035964 25.578352 7.2271 113.080729 -58.434094 60.580848 128.460039 3.437346 -18.087271 -163.686359 55.653022 139.745201 6.463926 -6.452563 -0.634094 -141.378195 -47.343143 123.839283 88.792324 -75.498778 40.049197 109.784085 -67.428133 50.309791 -153.319833 13.628894 138.862683 -5.02893 21.265505 4.804531 -145.011098 -5.001528 -177.551545 10.69438 67.914851 0.667787 -123.035933 -31.102235 -120.853273 -161.111697 55.950176 -147.326994 153.049621 10.023639 -158.66873 -44.14672 -72.141312 -84.808047 -9.374325 56.039426 148.791189 165.782557 12.82835 -139.10412 166.631493 -4.304906 -89.770982 11.555486 -44.477632 -7.877323 134.540675 10.540908 -112.294201 136.104297 32.217341 -107.029817 -14.566312 -44.053139 2.827164 34.554317 55.105842 -29.027493 66.264797 72.867852 -83.837369 -5.86654 0.006436 4.332756 153.554777 42.67215 148.511289 -72.792573 84.308163 35.199081 -0.0 -0.000389 -0.002418 -40.298842 -36.926232 29.555062 76.87516 27.475601 -77.017198 53.655687 -42.482977 -7.357784 -179.972757 75.749587 -0.022415 -149.547652 21.846658 -57.668479 -50.896357 55.304677 -169.21437 -93.993192 -14.831985 142.291838
5.1096 62.5799 7.935300000000001 10.346952 -42.742858 -6.327334 -7.944447 25.105218 3.08734 -5.506653 -10.802655 14.307976 3.930425 15.072408 32.594657 -16.686452 -20.141654 4.355173 -0.003009 0.0 -0.001872 0.002311 0.0 0.003926 -152.129011 14.113013 157.556199 136.310323 -39.240564 160.961002 19.625795 9.244411 106.838468 -19.128306 54.266465 8.232651 -93.74317 37.96314 53.548782 -140.111141 -23.507654 78.528418 -172.895844 -51.894313 120.180753 -83.76159 55.836983 68.670109 -160.889601 -7.337905 143.343952 -166.99173 -15.993879 143.776875 -145.118739 0.184781 -179.1877 -149.417951 -38.764032 -171.999182 27.124937 80.264164 10.035985 0.359903 -2.662037 -1.782412 158.514257 -30.701993 -167.039096 -30.656181 81.417661 68.243923 -152.479091 -8.929676 -20.480531 149.605627 41.771942 -125.016031 78.030773 38.688791 -42.4127 -73.941842 -48.575375 -27.729579 83.732181 42.33116 -69.990289 1.282216 11.69878 2.426933 171.806653 -40.921808 -145.169973 -13.222736 -30.020652 1.012651 -0.003645 0.605375 -0.190298 23.432241 72.953908 -36.411584 -8.36698 26.42674 -7.364488 -2.032663 0.139468 0.074607 0.002147 3.4e-05 0.002147 -40.969436 -40.386602 -147.624973 -87.952813 -19.120911 -172.44995 -143.603702 -37.763693 148.938904 179.968695 75.748913 0.025757 -151.290771 26.490933 83.317576 61.443817 -25.315092 -4.685619 -48.624968 84.579947 -19.31109
